<?xml version="1.0" standalone="no"?>
<!DOCTYPE svg PUBLIC "-//W3C//DTD SVG 20010904//EN"
 "http://www.w3.org/TR/2001/REC-SVG-20010904/DTD/svg10.dtd">
<svg version="1.0" xmlns="http://www.w3.org/2000/svg"
 width="281.000000pt" height="281.000000pt" viewBox="0 0 281.000000 281.000000"
 preserveAspectRatio="xMidYMid meet">
<metadata>
Created by potrace 1.11, written by Peter Selinger 2001-2013
</metadata>
<g transform="translate(0.000000,281.000000) scale(0.100000,-0.100000)"
fill="#000000" stroke="none">
<path d="M704 2703 l1 -37 120 -28 c78 -19 127 -36 140 -49 19 -19 20 -35 24
-331 l3 -311 -143 6 -144 5 0 -36 1 -37 92 -21 c51 -12 113 -29 137 -39 38
-14 45 -21 51 -51 11 -61 -1 -627 -14 -651 -13 -24 -54 -38 -192 -67 l-76 -16
-2 -35 c-3 -33 -1 -35 30 -36 18 -1 36 -1 40 0 3 0 55 3 115 6 l109 5 -2 -212
c-3 -332 -6 -391 -20 -419 -14 -28 -57 -45 -195 -74 l-76 -16 1 -32 1 -33 360
0 c198 1 387 -1 420 -4 l60 -4 3 33 c4 41 -4 47 -77 56 -30 4 -64 9 -76 11
-135 26 -149 34 -159 94 -5 36 -7 180 -7 441 l1 147 163 -1 c228 -1 306 10
434 62 182 72 316 222 348 388 8 42 8 143 0 188 -25 137 -144 256 -314 311
l-65 21 57 26 c168 77 277 281 245 459 -27 148 -137 254 -305 295 -71 16 -112
17 -628 13 -132 -1 -290 0 -351 4 l-111 6 1 -37z m842 -84 c118 -5 191 -35
252 -104 53 -60 71 -117 68 -219 -2 -66 -8 -93 -30 -137 -47 -93 -133 -164
-221 -183 -16 -3 -41 -9 -55 -12 -14 -3 -96 -7 -182 -10 l-158 -5 -1 43 c-1
83 3 414 6 463 2 28 4 71 4 96 1 57 4 59 136 66 55 3 102 7 104 9 2 2 7 2 10
-1 4 -2 34 -5 67 -6z m69 -800 c181 -43 278 -176 269 -371 -9 -191 -121 -323
-300 -357 -54 -11 -220 -8 -302 4 l-54 8 6 350 c3 193 10 355 14 359 24 24
274 29 367 7z"/>
</g>
</svg>
